<?xml version="1.0" encoding="utf-8"?>
<!-- Generator: Adobe Illustrator 26.0.3, SVG Export Plug-In . SVG Version: 6.00 Build 0)  -->
<svg version="1.0" id="Layer_1" xmlns="http://www.w3.org/2000/svg" xmlns:xlink="http://www.w3.org/1999/xlink" x="0px" y="0px"
	 viewBox="0 0 883 563.9" style="enable-background:new 0 0 883 563.9;" xml:space="preserve">
<style type="text/css">
	.st0{fill:#75B72B;}
	.st1{fill:#2A292A;}
</style>
<path class="st0" d="M165.4,327.6L139.8,302l25.6-25.5l25.6,25.5L165.4,327.6z M165.4,243.2L123.2,201L81,243.2l16.6,16.6l25.6-25.6
	l25.6,25.6l-25.6,25.5l0,0L106.5,302l58.8,58.8l58.8-58.8L182,259.8l25.6-25.5l25.6,25.6l16.6-16.6L207.5,201L165.4,243.2z"/>
<path class="st1" d="M773.3,270.7h-28.8l-31.6,33.1v-65h-22.7v122.1h22.7v-39.7l33.6,39.7h27.8l-41.3-49.2L773.3,270.7z M663,235
	c-7.5,0.1-13.5,6.3-13.4,13.7c0.1,7.5,6.3,13.5,13.7,13.4c7.4-0.1,13.4-6.1,13.4-13.6C676.6,241.1,670.5,235.1,663,235 M651.7,360.9
	h22.7v-90.1h-22.7V360.9z M626.2,267.7c-7.8,0-14.3,4.7-18.4,10v-7h-22.7v90.2h22.7v-56.9c2.1-9.5,9.8-14.3,16.4-14.3
	c4.3,0,8.7,1.1,11,2.7l2.2,1.6v-24l-0.7-0.4C634.8,268.5,630.4,267.8,626.2,267.7 M532.6,267.6c24.2,0,38.7,16.8,38.7,44.9v8.5
	h-58.5c1.7,14,11,22,25.8,22c9.5,0,16.2-2.1,24.6-7.9l2.2-1.5v20.9l-0.6,0.4c-7.4,5.4-16.8,8-29,8c-27.1,0-45.3-18.8-45.3-46.9
	C490.5,287.4,507.8,267.5,532.6,267.6 M549.5,303c-1.1-10-7.2-16-16.7-16c-9.1,0-15.8,5.8-18.6,16H549.5z M455,360.9h22.7V238.7H455
	L455,360.9z M402.5,267.5c24.2,0,38.7,16.8,38.7,44.9v8.5h-58.5c1.7,14,11,22,25.8,22c9.5,0,16.2-2.1,24.6-7.9l2.2-1.5v20.9
	l-0.6,0.4c-7.4,5.4-16.8,8-29,8c-27.1,0-45.3-18.8-45.3-46.9C360.4,287.4,377.7,267.5,402.5,267.5 M419.4,303
	c-1.1-10-7.2-16-16.7-16c-9.1,0-15.8,5.8-18.6,16H419.4z M378.2,259.8h-40.7v101H314v-101h-40.7v-21.1h105L378.2,259.8z"/>
<path class="st1" d="M790.7,273.7h-2v2.9h2c1.1,0,1.7-0.5,1.7-1.4c0-0.8-0.6-1.5-1.4-1.5C790.8,273.7,790.7,273.7,790.7,273.7
	 M788.7,279.4v4h-3.6v-12.7h6c2.8,0,4.7,1.7,4.7,4.5c0.2,1.7-0.9,3.3-2.5,3.8l2.9,4.4h-4l-2.5-4L788.7,279.4z M790.1,267.1
	c-5.6-0.2-10.2,4.2-10.4,9.8c-0.2,5.6,4.2,10.2,9.8,10.4s10.2-4.2,10.4-9.8c0-0.1,0-0.2,0-0.3c0.2-5.4-4-9.9-9.4-10.1
	C790.3,267.1,790.2,267.1,790.1,267.1 M790.1,289.3c-6.7,0.1-12.2-5.3-12.3-12c-0.1-6.7,5.3-12.2,12-12.3c6.7-0.1,12.2,5.3,12.3,12
	c0,0,0,0.1,0,0.1c0.1,6.6-5.1,12-11.7,12.1C790.3,289.3,790.2,289.3,790.1,289.3"/>
</svg>
